<?xml version="1.0" encoding="UTF-8"?>
<svg width="24px" height="24px" viewBox="0 0 24 24" version="1.1" xmlns="http://www.w3.org/2000/svg" xmlns:xlink="http://www.w3.org/1999/xlink">
    <title>9.元素/进度/loading/White</title>
    <defs>
        <linearGradient x1="94.0869141%" y1="0%" x2="94.0869141%" y2="90.559082%" id="linearGradient-1">
            <stop stop-color="#EDEDED" stop-opacity="0" offset="0%"></stop>
            <stop stop-color="#EDEDED" stop-opacity="0.3" offset="100%"></stop>
        </linearGradient>
        <linearGradient x1="100%" y1="8.67370605%" x2="100%" y2="90.6286621%" id="linearGradient-2">
            <stop stop-color="#EDEDED" offset="0%"></stop>
            <stop stop-color="#EDEDED" stop-opacity="0.3" offset="100%"></stop>
        </linearGradient>
    </defs>
    <g id="0426-Mac切图" stroke="none" stroke-width="1" fill="none" fill-rule="evenodd" opacity="0.9">
        <g id="icon" transform="translate(-177.000000, -31.000000)">
            <g id="LoadingWithe" transform="translate(177.000000, 31.000000)">
                <path d="M12,0 C18.627417,0 24,5.372583 24,12 C24,18.627417 18.627417,24 12,24 L12,21.9 C17.467619,21.9 21.9,17.467619 21.9,12 C21.9,6.53238098 17.467619,2.1 12,2.1 L12,0 Z" id="路径" fill="url(#linearGradient-1)"></path>
                <path d="M12,0 L12,2.1 C6.53238098,2.1 2.1,6.53238098 2.1,12 C2.1,17.467619 6.53238098,21.9 12,21.9 L12,24 C5.372583,24 0,18.627417 0,12 C0,5.372583 5.372583,0 12,0 Z" id="路径" fill="url(#linearGradient-2)"></path>
                <circle id="Oval" fill="#EDEDED" cx="12.15" cy="1.05" r="1.05"></circle>
            </g>
        </g>
    </g>
</svg>