<?xml version="1.0" encoding="UTF-8"?>
<svg width="40px" height="40px" viewBox="0 0 40 40" version="1.1" xmlns="http://www.w3.org/2000/svg" xmlns:xlink="http://www.w3.org/1999/xlink">
    <!-- Generator: Sketch 60.1 (88133) - https://sketch.com -->
    <title>Fileicon-zip</title>
    <desc>Created with Sketch.</desc>
    <g id="Fileicon-zip" stroke="none" stroke-width="1" fill="none" fill-rule="evenodd">
        <g id="Group" transform="translate(5.000000, 0.000000)">
            <path d="M30,38.6666667 C30,39.4030463 29.4030463,40 28.6666667,40 L1.33333333,40 C0.596953667,40 4.73130976e-14,39.4030463 4.26325641e-14,38.6666667 L4.26325641e-14,1.33333333 C4.25423836e-14,0.596953667 0.596953667,-7.52907669e-16 1.33333333,0 L20,0 L30,10 L30,38.6666667 Z" id="Combined-Shape" fill="#8B572A"></path>
            <path d="M30,10 L21.3333333,10 C20.5969537,10 20,9.40304633 20,8.66666667 L20,0 L20,0 L30,10 Z" id="Rectangle" fill="#000000" opacity="0.200000003"></path>
        </g>
        <path d="M18.3333333,13.3333333 C17.9651435,13.3333333 17.6666667,13.0348565 17.6666667,12.6666667 L17.6666667,10.6666667 C17.6666667,10.2984768 17.9651435,10 18.3333333,10 L19.6666667,10 L19.6666667,6.66666667 L18.3333333,6.66666667 C17.9651435,6.66666667 17.6666667,6.36818983 17.6666667,6 L17.6666667,4 C17.6666667,3.63181017 17.9651435,3.33333333 18.3333333,3.33333333 L19.6666667,3.33333333 L19.6666667,0 L21.6666667,0 C22.0348565,-6.76353751e-17 22.3333333,0.298476833 22.3333333,0.666666667 L22.3333333,2.66666667 C22.3333333,3.0348565 22.0348565,3.33333333 21.6666667,3.33333333 L20.3333333,3.33333333 L20.3333333,6.66666667 L21.6666667,6.66666667 C22.0348565,6.66666667 22.3333333,6.9651435 22.3333333,7.33333333 L22.3333333,9.33333333 C22.3333333,9.70152317 22.0348565,10 21.6666667,10 L20.3333333,10 L20.3333333,13.3333333 L21.6666667,13.3333333 C22.0348565,13.3333333 22.3333333,13.6318102 22.3333333,14 L22.3333333,16 C22.3333333,16.3681898 22.0348565,16.6666667 21.6666667,16.6666667 L19.6666667,16.6666667 L19.6666667,13.3333333 L18.3333333,13.3333333 Z" id="Combined-Shape" fill="#FFFFFF"></path>
        <path d="M21.6666667,18.6666667 C22.0348565,18.6666667 22.3333333,18.9651435 22.3333333,19.3333333 L22.3333333,28 C22.3333333,28.3681898 22.0348565,28.6666667 21.6666667,28.6666667 L18.3333333,28.6666667 C17.9651435,28.6666667 17.6666667,28.3681898 17.6666667,28 L17.6666667,19.3333333 C17.6666667,18.9651435 17.9651435,18.6666667 18.3333333,18.6666667 L21.6666667,18.6666667 Z M21.3333333,24 L18.6666667,24 L18.6666667,27.6666667 L21.3333333,27.6666667 L21.3333333,24 Z" id="Combined-Shape" fill="#FFFFFF"></path>
    </g>
</svg>