<?xml version="1.0" encoding="UTF-8"?>
<svg width="40px" height="40px" viewBox="0 0 40 40" version="1.1" xmlns="http://www.w3.org/2000/svg" xmlns:xlink="http://www.w3.org/1999/xlink">
    <!-- Generator: Sketch 60.1 (88133) - https://sketch.com -->
    <title>Fileicon/xls</title>
    <desc>Created with Sketch.</desc>
    <g id="Fileicon/xls" stroke="none" stroke-width="1" fill="none" fill-rule="evenodd">
        <g id="File" transform="translate(5.000000, 0.000000)">
            <path d="M30,38.6666667 C30,39.4030463 29.4030463,40 28.6666667,40 L1.33333333,40 C0.596953667,40 4.73130976e-14,39.4030463 4.26325641e-14,38.6666667 L4.26325641e-14,1.33333333 C4.25423836e-14,0.596953667 0.596953667,-7.52907669e-16 1.33333333,0 L20,0 L30,10 L30,38.6666667 Z" id="Combined-Shape" fill="#207346"></path>
            <path d="M30,10 L21.3333333,10 C20.5969537,10 20,9.40304633 20,8.66666667 L20,0 L20,0 L30,10 Z" id="Rectangle" fill="#000000" opacity="0.200000003"></path>
        </g>
        <polygon id="X" fill="#FFFFFF" points="15.0104167 30.6666667 18.6822917 25.0182292 18.6822917 24.9635417 15.0416667 19.3932292 17.4244792 19.3932292 20.0338542 23.6276042 20.0963542 23.6276042 22.7369792 19.3932292 24.9947917 19.3932292 21.2369792 25.0104167 21.2369792 25.0651042 24.9322917 30.6666667 22.6119792 30.6666667 19.9557292 26.5260417 19.8932292 26.5260417 17.2057292 30.6666667"></polygon>
    </g>
</svg>