<?xml version="1.0" encoding="UTF-8"?>
<svg width="40px" height="40px" viewBox="0 0 40 40" version="1.1" xmlns="http://www.w3.org/2000/svg" xmlns:xlink="http://www.w3.org/1999/xlink">
    <!-- Generator: Sketch 60.1 (88133) - https://sketch.com -->
    <title>fileicon_unknow </title>
    <desc>Created with Sketch.</desc>
    <g id="fileicon_unknow-" stroke="none" stroke-width="1" fill="none" fill-rule="evenodd">
        <g id="Group" transform="translate(5.000000, 0.000000)">
            <path d="M30,38.6666667 C30,39.4030463 29.4030463,40 28.6666667,40 L1.33333333,40 C0.596953667,40 4.73130976e-14,39.4030463 4.26325641e-14,38.6666667 L4.26325641e-14,1.33333333 C4.25423836e-14,0.596953667 0.596953667,-7.52907669e-16 1.33333333,0 L20,0 L30,10 L30,38.6666667 Z" id="Combined-Shape" fill="#F2F2F2"></path>
            <path d="M30,10 L21.3333333,10 C20.5969537,10 20,9.40304633 20,8.66666667 L20,0 L20,0 L30,10 Z" id="Rectangle" fill="#000000" opacity="0.100000001"></path>
            <path d="M15.25,26.8489583 L15.25,26.3411458 C15.25,25.5208333 15.53125,25.0833333 16.5234375,24.4973958 C17.5234375,23.8958333 18.15625,23.0286458 18.15625,21.8020833 C18.15625,20.1927083 16.8125,18.9739583 14.84375,18.9739583 C12.6484375,18.9739583 11.5234375,20.3177083 11.4375,22.0052083 L12.7734375,22.0052083 C12.859375,20.8880208 13.609375,20.1927083 14.7890625,20.1927083 C15.953125,20.1927083 16.703125,20.9036458 16.703125,21.8723958 C16.703125,22.7083333 16.3515625,23.2005208 15.4453125,23.7552083 C14.375,24.3958333 13.875,25.0989583 13.8828125,26.1302083 L13.8828125,26.8489583 L15.25,26.8489583 Z M14.5703125,30.4114583 C15.078125,30.4114583 15.4609375,30.0208333 15.4609375,29.5208333 C15.4609375,29.0130208 15.078125,28.6302083 14.5703125,28.6302083 C14.0703125,28.6302083 13.6796875,29.0130208 13.6796875,29.5208333 C13.6796875,30.0208333 14.0703125,30.4114583 14.5703125,30.4114583 Z" id="?" fill="#000000" fill-rule="nonzero" opacity="0.300000012"></path>
        </g>
    </g>
</svg>