<?xml version="1.0" encoding="UTF-8"?>
<svg width="32px" height="32px" viewBox="0 0 32 32" version="1.1" xmlns="http://www.w3.org/2000/svg" xmlns:xlink="http://www.w3.org/1999/xlink">
    <!-- Generator: Sketch 61.2 (89653) - https://sketch.com -->
    <title>icon-page</title>
    <desc>Created with Sketch.</desc>
    <defs>
        <circle id="path-1" cx="16" cy="16" r="16"></circle>
    </defs>
    <g id="icon-page" stroke="none" stroke-width="1" fill="none" fill-rule="evenodd">
        <mask id="mask-2" fill="white">
            <use xlink:href="#path-1"></use>
        </mask>
        <use id="蒙版" fill="#FF9200" xlink:href="#path-1"></use>
        <g id="编组" transform="translate(7.500000, 6.500000)" fill="#FFFFFF">
            <rect id="Rectangle-12" x="1" y="16.78957" width="15.2" height="1" rx="0.5"></rect>
            <path d="M8.33054345,15.5818182 L8.11796907,16.8485683 C8.10543402,16.9232657 8.03471811,16.9736583 7.96002066,16.9611233 C7.90234005,16.9514438 7.85714509,16.9062489 7.84746566,16.8485683 L7.63489128,15.5818182 C7.6177384,15.3475751 7.60098204,15.1167779 7.58462218,14.8894264 L8.38081255,14.8894264 C8.36445269,15.1167779 8.34769632,15.3475751 8.33054345,15.5818182 Z M8.42998719,14.1995118 L7.53544754,14.1995118 C7.26889501,10.4225074 7.1189253,7.65864344 7.0855384,5.90792005 L8.87989632,5.90792005 C8.84650943,7.65864344 8.69653971,10.4225074 8.42998719,14.1995118 Z M8.03134358,-1 C8.39522352,-0.999999907 8.69573922,-0.715771704 8.71599457,-0.352455954 C8.83004307,1.6932062 8.88706731,3.55008546 8.88706731,5.21818182 L7.07836741,5.21818182 L7.07836741,5.21818182 C7.07836741,3.55008669 7.13539158,1.69320894 7.2494399,-0.352451423 C7.26969087,-0.715769875 7.57020859,-1 7.93409099,-1 L8.03134358,-1 Z" id="Combined-Shape" transform="translate(7.982717, 7.981518) rotate(45.000000) translate(-7.982717, -7.981518) "></path>
        </g>
    </g>
</svg>