<?xml version="1.0" encoding="UTF-8"?>
<svg width="40px" height="40px" viewBox="0 0 40 40" version="1.1" xmlns="http://www.w3.org/2000/svg" xmlns:xlink="http://www.w3.org/1999/xlink">
    <!-- Generator: Sketch 60.1 (88133) - https://sketch.com -->
    <title>Fileicon/ppt</title>
    <desc>Created with Sketch.</desc>
    <g id="Fileicon/ppt" stroke="none" stroke-width="1" fill="none" fill-rule="evenodd">
        <path d="M35,38.6666667 C35,39.4030463 34.4030463,40 33.6666667,40 L6.33333333,40 C5.59695367,40 5,39.4030463 5,38.6666667 L5,1.33333333 C5,0.596953667 5.59695367,-7.52907669e-16 6.33333333,0 L25,0 L35,10 L35,38.6666667 Z" id="Combined-Shape" fill="#F2613F"></path>
        <path d="M35,10 L26.3333333,10 C25.5969537,10 25,9.40304633 25,8.66666667 L25,0 L25,0 L35,10 Z" id="Rectangle" fill="#000000" opacity="0.200000003"></path>
        <path d="M16.3255208,19.3932292 L20.7083333,19.3932292 C22.9505208,19.3932292 24.5052083,20.9166667 24.5052083,23.1666667 C24.5052083,25.4166667 22.9036458,26.9401042 20.6223958,26.9401042 L18.3411458,26.9401042 L18.3411458,30.6666667 L16.3255208,30.6666667 L16.3255208,19.3932292 Z M18.3411458,21.0416667 L18.3411458,25.3151042 L20.1692708,25.3151042 C21.6145833,25.3151042 22.4583333,24.5338542 22.4583333,23.1666667 C22.4583333,21.8151042 21.6223958,21.0416667 20.1770833,21.0416667 L18.3411458,21.0416667 Z" id="P" fill="#FFFFFF"></path>
    </g>
</svg>