<?xml version="1.0" encoding="UTF-8"?>
<svg width="40px" height="40px" viewBox="0 0 40 40" version="1.1" xmlns="http://www.w3.org/2000/svg" xmlns:xlink="http://www.w3.org/1999/xlink">
    <!-- Generator: Sketch 60.1 (88133) - https://sketch.com -->
    <title>Fileicon/music备份</title>
    <desc>Created with Sketch.</desc>
    <g id="Fileicon/music备份" stroke="none" stroke-width="1" fill="none" fill-rule="evenodd">
        <path d="M35,38.6666667 C35,39.4030463 34.4030463,40 33.6666667,40 L6.33333333,40 C5.59695367,40 5,39.4030463 5,38.6666667 L5,1.33333333 C5,0.596953667 5.59695367,-7.52907669e-16 6.33333333,0 L25,0 L35,10 L35,38.6666667 Z" id="Combined-Shape" fill="#6467F0"></path>
        <path d="M35,10 L26.3333333,10 C25.5969537,10 25,9.40304633 25,8.66666667 L25,0 L25,0 L35,10 Z" id="Rectangle" fill="#000000" opacity="0.200000003"></path>
        <g id="Arrow41" transform="translate(11.000000, 16.333333)" fill="#FFFFFF">
            <path d="M14.1333333,11.3885844 C14.1333333,12.0587266 13.6769185,12.7121595 13.0630324,12.9936813 C12.9489134,13.0460152 12.2280042,13.2044521 12.1338718,13.2230729 C11.2293958,13.4019913 10.5344449,12.6402086 10.496173,11.8698798 C10.4579012,11.099551 10.9716682,10.4572096 11.567769,10.3392923 L11.567769,10.3392923 L12.5419274,10.1465896 C13.044047,10.0472631 13.4059013,9.60681695 13.4059013,9.09496748 L13.4059013,9.09496748 L13.4053328,3.36724222 L5.25233285,5.05224222 L5.25317598,13.3391249 C5.25317598,13.9613998 4.86302233,14.5692672 4.32000562,14.8783326 L4.19208853,14.9442218 C4.07895189,14.9965556 3.36424858,15.1549926 3.27092649,15.1736133 C2.37423645,15.3525318 1.68526796,14.5907491 1.64732554,13.8204203 C1.60938312,13.0500915 2.11872752,12.4077501 2.70969681,12.2898327 L2.70969681,12.2898327 L3.66976942,12.0982674 C4.17107102,11.9982417 4.53200589,11.5581738 4.53200589,11.0469905 L4.53200589,11.0469905 L4.53200589,4.11451131 C4.53270268,4.11397329 4.53339896,4.1134358 4.53409473,4.11289884 L4.53333333,3.63167223 C4.53333333,3.3787575 4.71096886,3.16062088 4.95864128,3.1093936 L13.4919746,1.34440344 C13.7804211,1.28474267 14.0626178,1.47021016 14.1222786,1.75865668 C14.1296292,1.79419525 14.1333333,1.83039128 14.1333333,1.86668207 Z" id="Music-Copy"></path>
        </g>
    </g>
</svg>