<?xml version="1.0" encoding="UTF-8"?>
<svg width="40px" height="40px" viewBox="0 0 40 40" version="1.1" xmlns="http://www.w3.org/2000/svg" xmlns:xlink="http://www.w3.org/1999/xlink">
    <!-- Generator: Sketch 60.1 (88133) - https://sketch.com -->
    <title>fileicon_numbers </title>
    <desc>Created with Sketch.</desc>
    <g id="fileicon_numbers-" stroke="none" stroke-width="1" fill="none" fill-rule="evenodd">
        <path d="M35,38.6666667 C35,39.4030463 34.4030463,40 33.6666667,40 L6.33333333,40 C5.59695367,40 5,39.4030463 5,38.6666667 L5,1.33333333 C5,0.596953667 5.59695367,-7.52907669e-16 6.33333333,0 L25,0 L35,10 L35,38.6666667 Z" id="Combined-Shape" fill="#1DCC25"></path>
        <path d="M35,10 L26.3333333,10 C25.5969537,10 25,9.40304633 25,8.66666667 L25,0 L25,0 L35,10 Z" id="Rectangle" fill="#000000" opacity="0.200000003"></path>
        <g id="Numbers" transform="translate(9.333333, 14.333333)" fill="#FFFFFF">
            <g id="icon" transform="translate(4.000000, 5.333333)">
                <rect id="Rectangle-10" x="0" y="8" width="2.66666667" height="2" rx="0.333333333"></rect>
                <rect id="Rectangle-10" x="3.66666667" y="5" width="2.66666667" height="5" rx="0.333333333"></rect>
                <path d="M7.66666667,0 L9.66666667,0 C9.85076158,2.93200577e-16 10,0.149238417 10,0.333333333 L10,9.66666667 C10,9.85076158 9.85076158,10 9.66666667,10 L7.66666667,10 C7.48257175,10 7.33333333,9.85076158 7.33333333,9.66666667 L7.33333333,0.333333333 C7.33333333,0.149238417 7.48257175,-2.43738069e-16 7.66666667,0 Z" id="Rectangle-10"></path>
                <rect id="Rectangle-12" x="0" y="10.6666667" width="14" height="1" rx="0.5"></rect>
                <rect id="Rectangle-10" x="11" y="3" width="2.66666667" height="7" rx="0.333333333"></rect>
            </g>
        </g>
    </g>
</svg>