<?xml version="1.0" encoding="UTF-8"?>
<svg width="40px" height="40px" viewBox="0 0 40 40" version="1.1" xmlns="http://www.w3.org/2000/svg" xmlns:xlink="http://www.w3.org/1999/xlink">
    <!-- Generator: Sketch 60.1 (88133) - https://sketch.com -->
    <title>Fileicon-keynote</title>
    <desc>Created with Sketch.</desc>
    <g id="Fileicon-keynote" stroke="none" stroke-width="1" fill="none" fill-rule="evenodd">
        <path d="M35,38.6666667 C35,39.4030463 34.4030463,40 33.6666667,40 L6.33333333,40 C5.59695367,40 5,39.4030463 5,38.6666667 L5,1.33333333 C5,0.596953667 5.59695367,-7.52907669e-16 6.33333333,0 L25,0 L35,10 L35,38.6666667 Z" id="Combined-Shape" fill="#1E85F5"></path>
        <path d="M35,10 L26.3333333,10 C25.5969537,10 25,9.40304633 25,8.66666667 L25,0 L25,0 L35,10 Z" id="Rectangle" fill="#000000" opacity="0.200000003"></path>
        <g id="icon" transform="translate(12.666667, 18.333333)" fill="#FFFFFF">
            <rect id="Rectangle-12" x="4" y="13.3333333" width="6.66666667" height="1" rx="0.5"></rect>
            <path d="M0,6.66666667 L14.6666667,6.66666667 C14.6666667,7.40304633 14.069713,8 13.3333333,8 L1.33333333,8 C0.596953667,8 9.01805001e-17,7.40304633 0,6.66666667 L0,6.66666667 L0,6.66666667 Z" id="Rectangle-12"></path>
            <rect id="Rectangle-12" x="7" y="7" width="1" height="6.66666667" rx="0.5"></rect>
            <path d="M2.40967186,0 L12.0625504,0 C12.3812471,2.74523259e-16 12.6553732,0.225562212 12.7167408,0.538294777 L13.8055556,6.08695652 L13.8055556,6.08695652 L0.666666667,6.08695652 L1.75548144,0.538294777 C1.816849,0.225562212 2.09097508,6.1365516e-16 2.40967186,0 Z M4.58253484,4.62251966 L6.18210107,3.12282884 L7.64212706,4.10372933 C7.75471799,4.17686765 7.90307222,4.16242888 7.99569406,4.06922777 L10.0293672,1.8573226 L9.62810337,1.46590265 L7.75243533,3.51753182 L6.31641106,2.53658688 C6.21304228,2.46342856 6.07184478,2.47789731 5.97812861,2.57115623 L4.21607627,4.23123528 L4.58253484,4.62251966 Z" id="Combined-Shape"></path>
        </g>
    </g>
</svg>