<?xml version="1.0" encoding="UTF-8"?>
<svg width="80px" height="80px" viewBox="0 0 40 40" version="1.1" xmlns="http://www.w3.org/2000/svg" xmlns:xlink="http://www.w3.org/1999/xlink">
    <!-- Generator: Sketch 60.1 (88133) - https://sketch.com -->
    <title>fileicon_PDF </title>
    <desc>Created with Sketch.</desc>
    <g id="fileicon_PDF-" stroke="none" stroke-width="1" fill="none" fill-rule="evenodd">
        <path d="M35,38.6666667 C35,39.4030463 34.4030463,40 33.6666667,40 L6.33333333,40 C5.59695367,40 5,39.4030463 5,38.6666667 L5,1.33333333 C5,0.596953667 5.59695367,-9.74952274e-16 6.33333333,0 L25,0 L35,10 L35,38.6666667 Z" id="Combined-Shape" fill="#E64340"></path>
        <path d="M35,10 L26.3333333,10 C25.5969537,10 25,9.40304633 25,8.66666667 L25,0 L25,0 L35,10 Z" id="Rectangle" fill="#000000" opacity="0.200000003"></path>
        <path d="M10.9947917,21.1510417 L13.9166667,21.1510417 C15.4114583,21.1510417 16.4479167,22.1666667 16.4479167,23.6666667 C16.4479167,25.1666667 15.3802083,26.1822917 13.859375,26.1822917 L12.3385417,26.1822917 L12.3385417,28.6666667 L10.9947917,28.6666667 L10.9947917,21.1510417 Z M12.3385417,22.25 L12.3385417,25.0989583 L13.5572917,25.0989583 C14.5208333,25.0989583 15.0833333,24.578125 15.0833333,23.6666667 C15.0833333,22.765625 14.5260417,22.25 13.5625,22.25 L12.3385417,22.25 Z M17.4270833,21.1510417 L20.171875,21.1510417 C22.4166667,21.1510417 23.7447917,22.5104167 23.7447917,24.890625 C23.7447917,27.2708333 22.421875,28.6666667 20.171875,28.6666667 L17.4270833,28.6666667 L17.4270833,21.1510417 Z M18.7708333,22.2864583 L18.7708333,27.53125 L20.03125,27.53125 C21.5416667,27.53125 22.375,26.609375 22.375,24.8958333 C22.375,23.2135417 21.53125,22.2864583 20.03125,22.2864583 L18.7708333,22.2864583 Z M26.1510417,28.6666667 L24.8072917,28.6666667 L24.8072917,21.1510417 L29.5989583,21.1510417 L29.5989583,22.2864583 L26.1510417,22.2864583 L26.1510417,24.5052083 L29.3020833,24.5052083 L29.3020833,25.5989583 L26.1510417,25.5989583 L26.1510417,28.6666667 Z" id="PDF" fill="#FFFFFF"></path>
    </g>
</svg>