<?xml version="1.0" encoding="UTF-8"?>
<svg width="40px" height="40px" viewBox="0 0 40 40" version="1.1" xmlns="http://www.w3.org/2000/svg" xmlns:xlink="http://www.w3.org/1999/xlink">
    <!-- Generator: Sketch 60.1 (88133) - https://sketch.com -->
    <title>fileicon_movie @3x</title>
    <desc>Created with Sketch.</desc>
    <g id="fileicon_movie-" stroke="none" stroke-width="1" fill="none" fill-rule="evenodd">
        <path d="M35,38.6666667 C35,39.4030463 34.4030463,40 33.6666667,40 L6.33333333,40 C5.59695367,40 5,39.4030463 5,38.6666667 L5,1.33333333 C5,0.596953667 5.59695367,-7.52907669e-16 6.33333333,0 L25,0 L35,10 L35,38.6666667 Z" id="Combined-Shape" fill="#404040"></path>
        <path d="M35,10 L26.3333333,10 C25.5969537,10 25,9.40304633 25,8.66666667 L25,0 L25,0 L35,10 Z" id="Rectangle" fill="#000000" opacity="0.200000003"></path>
        <path d="M11.3333333,18.8666667 L11.3333333,31.1333333 C11.3333333,31.4278852 11.5721148,31.6666667 11.8666667,31.6666667 L28.1333333,31.6666667 C28.4278852,31.6666667 28.6666667,31.4278852 28.6666667,31.1333333 L28.6666667,18.8666667 C28.6666667,18.5721148 28.4278852,18.3333333 28.1333333,18.3333333 L11.8666667,18.3333333 C11.5721148,18.3333333 11.3333333,18.5721148 11.3333333,18.8666667 Z" id="Rectangle-42" fill="#FFFFFF"></path>
        <path d="M20.6106834,23.4160251 L22.6545111,26.4817666 C22.7566286,26.6349428 22.7152373,26.8418993 22.562061,26.9440168 C22.5073052,26.9805207 22.4429693,27 22.377161,27 L18.2895057,27 C18.1054108,27 17.9561724,26.8507616 17.9561724,26.6666667 C17.9561724,26.6008583 17.9756517,26.5365224 18.0121556,26.4817666 L20.0559832,23.4160251 C20.1581007,23.2628489 20.3650572,23.2214576 20.5182334,23.3235751 C20.5548508,23.3479867 20.5862718,23.3794077 20.6106834,23.4160251 Z" id="Triangle-2" fill="#404040" transform="translate(20.333333, 25.000000) rotate(90.000000) translate(-20.333333, -25.000000) "></path>
        <rect id="Rectangle-5" fill="#404040" x="12.6666667" y="20.3333333" width="2" height="1.33333333"></rect>
        <rect id="Rectangle-5" fill="#404040" x="25.3333333" y="20.3333333" width="2" height="1.33333333"></rect>
        <rect id="Rectangle-5" fill="#404040" x="12.6666667" y="23" width="2" height="1.33333333"></rect>
        <rect id="Rectangle-5" fill="#404040" x="25.3333333" y="23" width="2" height="1.33333333"></rect>
        <rect id="Rectangle-5" fill="#404040" x="12.6666667" y="25.6666667" width="2" height="1.33333333"></rect>
        <rect id="Rectangle-5" fill="#404040" x="25.3333333" y="25.6666667" width="2" height="1.33333333"></rect>
        <rect id="Rectangle-5" fill="#404040" x="12.6666667" y="28.3333333" width="2" height="1.33333333"></rect>
        <rect id="Rectangle-5" fill="#404040" x="25.3333333" y="28.3333333" width="2" height="1.33333333"></rect>
    </g>
</svg>