<?xml version="1.0" encoding="UTF-8"?>
<svg width="40px" height="40px" viewBox="0 0 40 40" version="1.1" xmlns="http://www.w3.org/2000/svg" xmlns:xlink="http://www.w3.org/1999/xlink">
    <!-- Generator: Sketch 60.1 (88133) - https://sketch.com -->
    <title>fileicon_pages </title>
    <desc>Created with Sketch.</desc>
    <g id="fileicon_pages-" stroke="none" stroke-width="1" fill="none" fill-rule="evenodd">
        <path d="M35,38.6666667 C35,39.4030463 34.4030463,40 33.6666667,40 L6.33333333,40 C5.59695367,40 5,39.4030463 5,38.6666667 L5,1.33333333 C5,0.596953667 5.59695367,-7.52907669e-16 6.33333333,0 L25,0 L35,10 L35,38.6666667 Z" id="Combined-Shape" fill="#FF9200"></path>
        <path d="M35,10 L26.3333333,10 C25.5969537,10 25,9.40304633 25,8.66666667 L25,0 L25,0 L35,10 Z" id="Rectangle" fill="#000000" opacity="0.200000003"></path>
        <g id="Numbers" transform="translate(9.000000, 14.333333)" fill="#FFFFFF">
            <g id="icon" transform="translate(3.666667, 4.333333)">
                <rect id="Rectangle-12" x="1" y="11.6666667" width="12.6666667" height="1" rx="0.5"></rect>
                <path d="M7.10878621,12.158887 L6.93164089,13.2145121 C6.92119502,13.27676 6.8622651,13.3187538 6.80001722,13.3083079 C6.75195004,13.3002417 6.71428758,13.2625793 6.70622138,13.2145121 L6.52907606,12.158887 C6.51479961,11.963925 6.50085277,11.7718274 6.48723554,11.5825941 L7.15062673,11.5825941 C7.1370095,11.7718274 7.12306266,11.963925 7.10878621,12.158887 Z M7.19171981,11.0060607 L6.44614246,11.0060607 C6.2240625,7.85912313 6.09910993,5.55625237 6.07128473,4.09744844 L7.56657754,4.09744844 C7.53875234,5.55625237 7.41379977,7.85912313 7.19171981,11.0060607 Z M6.85945298,-1.65929478 C7.16268627,-1.6592947 7.41311601,-1.42243787 7.42999548,-1.11967474 C7.52503589,0.58504372 7.57255609,2.1324431 7.57255609,3.5225234 L6.06530618,3.5225234 L6.06530618,3.5225234 C6.06530618,2.13242538 6.11282759,0.585004278 6.20787043,-1.11973992 C6.22481289,-1.42246498 6.47521419,-1.65929478 6.77841298,-1.65929478 L6.85945298,-1.65929478 Z" id="Combined-Shape" transform="translate(6.818931, 5.825304) rotate(45.000000) translate(-6.818931, -5.825304) "></path>
            </g>
        </g>
    </g>
</svg>