<?xml version="1.0" encoding="UTF-8"?>
<svg width="24px" height="24px" viewBox="0 0 24 24" version="1.1" xmlns="http://www.w3.org/2000/svg" xmlns:xlink="http://www.w3.org/1999/xlink">
    <title>0.图标/04.特殊/icons_favorites_all</title>
    <g id="0.图标/04.特殊/icons_favorites_all" stroke="none" stroke-width="1" fill="none" fill-rule="evenodd" fill-opacity="0.9">
        <g id="编组" transform="translate(3.000000, 3.000000)" fill="#000000">
            <path d="M7,0 C7.55228475,0 8,0.44771525 8,1 L8,7 C8,7.55228475 7.55228475,8 7,8 L1,8 C0.44771525,8 0,7.55228475 0,7 L0,1 C0,0.44771525 0.44771525,0 1,0 L7,0 Z M6.8,1.2 L1.2,1.2 L1.2,6.8 L6.8,6.8 L6.8,1.2 Z" id="矩形"></path>
            <path d="M7,10 C7.55228475,10 8,10.4477153 8,11 L8,17 C8,17.5522847 7.55228475,18 7,18 L1,18 C0.44771525,18 0,17.5522847 0,17 L0,11 C0,10.4477153 0.44771525,10 1,10 L7,10 Z M6.8,11.2 L1.2,11.2 L1.2,16.8 L6.8,16.8 L6.8,11.2 Z" id="矩形备份-2"></path>
            <path d="M17,0 C17.5522847,0 18,0.44771525 18,1 L18,7 C18,7.55228475 17.5522847,8 17,8 L11,8 C10.4477153,8 10,7.55228475 10,7 L10,1 C10,0.44771525 10.4477153,0 11,0 L17,0 Z M16.8,1.2 L11.2,1.2 L11.2,6.8 L16.8,6.8 L16.8,1.2 Z" id="矩形备份"></path>
            <path d="M17,10 C17.5522847,10 18,10.4477153 18,11 L18,17 C18,17.5522847 17.5522847,18 17,18 L11,18 C10.4477153,18 10,17.5522847 10,17 L10,11 C10,10.4477153 10.4477153,10 11,10 L17,10 Z M16.8,11.2 L11.2,11.2 L11.2,16.8 L16.8,16.8 L16.8,11.2 Z" id="矩形备份-3"></path>
        </g>
    </g>
</svg>