<?xml version="1.0" encoding="UTF-8"?>
<svg width="24px" height="24px" viewBox="0 0 24 24" version="1.1" xmlns="http://www.w3.org/2000/svg" xmlns:xlink="http://www.w3.org/1999/xlink">
    <!-- Generator: Sketch 57.1 (83088) - https://sketch.com -->
    <title>0.图标/01.线性/icons_outlined_note</title>
    <desc>Created with Sketch.</desc>
    <g id="0.图标/01.线性/icons_outlined_note" stroke="none" stroke-width="1" fill="none" fill-rule="evenodd" fill-opacity="0.9">
        <path d="M18,2 C19.1045695,2 20,2.8954305 20,4 L20,20 C20,21.1045695 19.1045695,22 18,22 L4,22 L4,2 L18,2 Z M18.7998467,18.8429421 C18.5549022,18.9499384 18.2843826,19.0092926 18,19.0092926 L5.199,19.009 L5.2,20.8 L18,20.8 C18.4418278,20.8 18.8,20.4418278 18.8,20 L18.7998467,18.8429421 Z M7,3.199 L5.2,3.2 L5.199,17.809 L7,17.809 L7,3.199 Z M18,3.2 L8.2,3.199 L8.2,17.809 L18,17.8092926 C18.4370697,17.8092926 18.7922758,17.4587934 18.7998757,17.0235376 L18.8,4 C18.8,3.5581722 18.4418278,3.2 18,3.2 Z" id="Fill-55" fill="#000000"></path>
    </g>
</svg>