<?xml version="1.0" encoding="UTF-8"?>
<svg width="24px" height="24px" viewBox="0 0 24 24" version="1.1" xmlns="http://www.w3.org/2000/svg" xmlns:xlink="http://www.w3.org/1999/xlink">
    <!-- Generator: Sketch 57.1 (83088) - https://sketch.com -->
    <title>0.图标/01.线性/icons_outlined_link</title>
    <desc>Created with Sketch.</desc>
    <g id="0.图标/01.线性/icons_outlined_link" stroke="none" stroke-width="1" fill="none" fill-rule="evenodd" fill-opacity="0.9">
        <path d="M17.6568542,12 L16.8083261,11.1514719 L18.9296465,9.03015152 C20.0231145,7.9366835 20.0231145,6.16382156 18.9296465,5.07035354 C17.8361784,3.97688553 16.0633165,3.97688553 14.9698485,5.07035354 L11.0807612,8.95944084 C9.98729317,10.0529089 9.98729317,11.8257708 11.0807612,12.9192388 L10.232233,13.767767 C8.67013588,12.2056698 8.67013588,9.67300987 10.232233,8.1109127 L14.1213203,4.22182541 C15.6834175,2.65972824 18.2160774,2.65972824 19.7781746,4.22182541 C21.3402718,5.78392257 21.3402718,8.31658249 19.7781746,9.87867966 L17.6568542,12 Z M6.34314575,12 L7.19167389,12.8485281 L5.07035354,14.9698485 C3.97688553,16.0633165 3.97688553,17.8361784 5.07035354,18.9296465 C6.16382156,20.0231145 7.9366835,20.0231145 9.03015152,18.9296465 L12.9192388,15.0405592 C14.0127068,13.9470911 14.0127068,12.1742292 12.9192388,11.0807612 L13.767767,10.232233 C15.3298641,11.7943302 15.3298641,14.3269901 13.767767,15.8890873 L9.87867966,19.7781746 C8.31658249,21.3402718 5.78392257,21.3402718 4.22182541,19.7781746 C2.65972824,18.2160774 2.65972824,15.6834175 4.22182541,14.1213203 L6.34314575,12 Z" id="Combined-Shape" fill="#000000"></path>
    </g>
</svg>