<?xml version="1.0" encoding="UTF-8"?>
<svg width="24px" height="24px" viewBox="0 0 24 24" version="1.1" xmlns="http://www.w3.org/2000/svg" xmlns:xlink="http://www.w3.org/1999/xlink">
    <title>0.图标/04.笔记/icons_outlined_note_tag</title>
    <g id="0.图标/04.笔记/icons_outlined_note_tag" stroke="none" stroke-width="1" fill="none" fill-rule="evenodd" fill-opacity="0.9">
        <g id="tag" transform="translate(5.000000, 5.000000)" fill="#000000">
            <path d="M14.1706194,0 C14.6286737,0 15,0.371326333 15,0.829380577 L15,6.29150394 C15,6.51146934 14.9126191,6.72242554 14.7570801,6.87796457 L6.87796457,14.7570801 C6.5540713,15.0809733 6.02893657,15.0809733 5.70504331,14.7570801 L0.242919947,9.29495669 C-0.0809733157,8.97106343 -0.0809733157,8.4459287 0.242919947,8.12203543 L8.12203543,0.242919947 C8.27757446,0.0873809171 8.48853066,0 8.70849606,0 L14.1706194,0 Z M14.0047433,0.995256693 L8.7772042,0.995256693 L1.06396483,8.70849606 L6.29150394,13.9360352 L14.0047433,6.2227958 L14.0047433,0.995256693 Z M10.8530971,2.90283202 C11.5401785,2.90283202 12.097168,3.45982152 12.097168,4.14690289 C12.097168,4.83398425 11.5401785,5.39097375 10.8530971,5.39097375 C10.1660157,5.39097375 9.60902625,4.83398425 9.60902625,4.14690289 C9.60902625,3.45982152 10.1660157,2.90283202 10.8530971,2.90283202 Z" id="Combined-Shape"></path>
        </g>
    </g>
</svg>