<?xml version="1.0" encoding="UTF-8"?>
<svg width="24px" height="24px" viewBox="0 0 24 24" version="1.1" xmlns="http://www.w3.org/2000/svg" xmlns:xlink="http://www.w3.org/1999/xlink">
    <title>0.图标/04.笔记/icons_outlined_note_B</title>
    <g id="0.图标/04.笔记/icons_outlined_note_B" stroke="none" stroke-width="1" fill="none" fill-rule="evenodd" fill-opacity="0.9">
        <path d="M13.2575,18 C14.3525,18 15.2225,17.7689076 15.8525,17.337535 C16.5875,16.8137255 16.9625,16.012605 16.9625,14.9341737 C16.9625,14.1946779 16.7525,13.6092437 16.3625,13.1470588 C15.9725,12.6848739 15.4325,12.3767507 14.7275,12.2535014 C15.2675,12.0686275 15.7025,11.7759104 16.0325,11.3753501 C16.3475,10.9285714 16.5125,10.3893557 16.5125,9.77310924 C16.5125,8.91036415 16.2275,8.232493 15.6575,7.7394958 C15.0725,7.2464986 14.2775,7 13.2875,7 L8.5025,7 L8.5025,18 L13.2575,18 Z M12.9875,11.645 L9.7325,11.645 L9.7325,8 L13.0025,8 C13.7525,8 14.3225,8.135 14.7125,8.435 C15.1025,8.735 15.2975,9.185 15.2975,9.785 C15.2975,10.4 15.0875,10.865 14.6975,11.18 C14.3075,11.48 13.7375,11.645 12.9875,11.645 Z M13.1525,16.965 L9.7325,16.965 L9.7325,12.99 L13.1525,12.99 C13.9775,12.99 14.6075,13.14 15.0425,13.47 C15.4925,13.8 15.7325,14.31 15.7325,15 C15.7325,15.69 15.4625,16.215 14.9375,16.545 C14.4875,16.815 13.9025,16.965 13.1525,16.965 Z" id="B" fill="#000000" fill-rule="nonzero"></path>
    </g>
</svg>