<?xml version="1.0" encoding="UTF-8"?>
<svg width="24px" height="24px" viewBox="0 0 24 24" version="1.1" xmlns="http://www.w3.org/2000/svg" xmlns:xlink="http://www.w3.org/1999/xlink">
    <title>0.图标/04.笔记/icons_outlined_note_cloud</title>
    <g id="0.图标/04.笔记/icons_outlined_note_cloud" stroke="none" stroke-width="1" fill="none" fill-rule="evenodd" fill-opacity="0.9">
        <g id="cloud" transform="translate(3.000000, 6.000000)" fill="#000000">
            <path d="M4.00340859,5.54197934 C2.20943163,5.54166667 0.791666667,6.95943163 0.791666667,8.70833333 C0.791666667,10.457235 2.20943163,11.875 3.95833333,11.875 L14.25,11.875 C16.4361271,11.875 18.2083333,10.1027938 18.2083333,7.91666667 C18.2083333,5.81187932 16.560715,4.0778634 14.4688068,3.9642575 L13.997919,3.93868486 L13.796173,3.51243636 C13.0162451,1.86460648 11.3552642,0.791666667 9.5,0.791666667 C7.1293293,0.791666667 5.13021323,2.53938767 4.79809609,4.86243142 L4.69956188,5.55164387 L4.00340859,5.54197934 Z M9.5,0 C11.7134358,0 13.6237811,1.2976849 14.5117368,3.17375568 C17.0133578,3.30961198 19,5.38113675 19,7.91666667 C19,10.5400192 16.8733526,12.6666667 14.25,12.6666667 L11.875,12.6666667 L11.875,11.875 L7.91666667,11.875 L7.91666667,12.6666667 L3.95833333,12.6666667 C1.7722062,12.6666667 0,10.8944605 0,8.70833333 C0,6.5222062 1.7722062,4.75 3.95833333,4.75 C4.39837083,2.06463313 6.70807496,0 9.5,0 Z" id="Combined-Shape" fill-rule="nonzero"></path>
            <path d="M9.82178973,4.74467072 C9.9479816,4.71850932 10.0844718,4.7543974 10.1824093,4.85233496 L10.1824093,4.85233496 L12.9813737,7.6512993 C13.1359562,7.80588183 13.1359562,8.05650964 12.9813737,8.21109217 C12.8267911,8.3656747 12.5761633,8.3656747 12.4215808,8.21109217 L12.4215808,8.21109217 L10.2911681,6.08039806 L10.2916667,12.2708333 C10.2916667,12.489446 10.114446,12.6666667 9.89583333,12.6666667 C9.67722062,12.6666667 9.5,12.489446 9.5,12.2708333 L9.49916807,6.08539806 L7.37189784,8.21348399 C7.21731531,8.36806652 6.9666875,8.36806652 6.81210497,8.21348399 C6.65752244,8.05890145 6.65752244,7.80827365 6.81210497,7.65369112 L9.61106931,4.85472678 C9.66903776,4.79675833 9.74051258,4.76052804 9.81536399,4.74603593 Z" id="形状结合"></path>
        </g>
    </g>
</svg>