<?xml version="1.0" encoding="UTF-8"?>
<svg width="24px" height="24px" viewBox="0 0 24 24" version="1.1" xmlns="http://www.w3.org/2000/svg" xmlns:xlink="http://www.w3.org/1999/xlink">
    <title>0.图标/04.笔记/icons_outlined_note_numberlist</title>
    <g id="0.图标/04.笔记/icons_outlined_note_numberlist" stroke="none" stroke-width="1" fill="none" fill-rule="evenodd" fill-opacity="0.9">
        <g id="Number" transform="translate(3.500000, 6.000000)" fill="#000000">
            <rect id="Rectangle-14" x="5" y="1" width="12" height="1"></rect>
            <rect id="Rectangle-14-Copy" x="5" y="6" width="12" height="1"></rect>
            <rect id="Rectangle-14-Copy-2" x="5" y="11" width="12" height="1"></rect>
            <path d="M1.8,3 L1.8,0.144 L1.544,0.144 C1.448,0.252 1.336,0.348 1.2,0.436 C1.064,0.516 0.928,0.572 0.8,0.608 L0.8,0.936 C1.068,0.856 1.292,0.728 1.472,0.544 L1.472,3 L1.8,3 Z" id="1" fill-rule="nonzero"></path>
            <path d="M2.452,8 L2.452,7.708 L0.952,7.708 C1.004,7.516 1.212,7.296 1.576,7.052 C1.872,6.852 2.068,6.696 2.168,6.592 C2.352,6.392 2.448,6.168 2.448,5.92 C2.448,5.672 2.36,5.468 2.192,5.316 C2.02,5.164 1.804,5.088 1.54,5.088 C1.252,5.088 1.016,5.184 0.84,5.376 C0.664,5.564 0.572,5.82 0.572,6.14 L0.9,6.14 C0.904,5.888 0.964,5.696 1.076,5.568 C1.18,5.432 1.332,5.368 1.528,5.368 C1.712,5.368 1.86,5.416 1.964,5.512 C2.068,5.608 2.12,5.74 2.12,5.916 C2.12,6.1 2.044,6.272 1.9,6.428 C1.824,6.508 1.676,6.624 1.452,6.784 C1.148,6.992 0.944,7.164 0.832,7.292 C0.64,7.504 0.548,7.74 0.548,8 L2.452,8 Z" id="2" fill-rule="nonzero"></path>
            <path d="M1.508,13.056 C1.804,13.056 2.044,12.972 2.228,12.804 C2.408,12.64 2.5,12.428 2.5,12.168 C2.5,12 2.452,11.86 2.356,11.748 C2.268,11.636 2.14,11.556 1.972,11.504 C2.284,11.4 2.44,11.184 2.44,10.864 C2.44,10.624 2.356,10.436 2.192,10.296 C2.024,10.156 1.8,10.088 1.528,10.088 C1.256,10.088 1.036,10.164 0.868,10.32 C0.692,10.476 0.588,10.692 0.564,10.968 L0.888,10.968 C0.908,10.776 0.972,10.628 1.084,10.524 C1.192,10.42 1.34,10.372 1.532,10.372 C1.716,10.372 1.864,10.416 1.968,10.512 C2.064,10.6 2.116,10.724 2.116,10.884 C2.116,11.044 2.064,11.168 1.964,11.256 C1.864,11.34 1.72,11.384 1.528,11.384 L1.308,11.384 L1.308,11.64 L1.54,11.64 C1.74,11.64 1.892,11.684 2.004,11.78 C2.116,11.876 2.172,12.008 2.172,12.18 C2.172,12.348 2.112,12.488 2,12.6 C1.876,12.716 1.712,12.776 1.508,12.776 C1.328,12.776 1.18,12.724 1.06,12.628 C0.92,12.512 0.844,12.34 0.836,12.116 L0.504,12.116 C0.528,12.436 0.64,12.68 0.844,12.848 C1.016,12.984 1.236,13.056 1.508,13.056 Z" id="3" fill-rule="nonzero"></path>
        </g>
    </g>
</svg>