<?xml version="1.0" encoding="UTF-8"?>
<svg width="24px" height="24px" viewBox="0 0 24 24" version="1.1" xmlns="http://www.w3.org/2000/svg" xmlns:xlink="http://www.w3.org/1999/xlink">
    <title>0.图标/04.笔记/icons_outlined_note_delete</title>
    <g id="0.图标/04.笔记/icons_outlined_note_delete" stroke="none" stroke-width="1" fill="none" fill-rule="evenodd" fill-opacity="0.9">
        <g id="delete" transform="translate(5.000000, 5.000000)" fill="#000000">
            <path d="M2.50330487,2.68419043 L3.12451622,13.458578 C3.14375302,13.7922239 3.41144985,14.0526302 3.73520003,14.0526302 L9.26479997,14.0526302 C9.58855015,14.0526302 9.85624698,13.7922239 9.87548378,13.458578 L10.4966951,2.68419043 L2.50330487,2.68419043 Z M11.4159664,2.68419047 L10.7915095,13.5148694 C10.7434175,14.3489843 10.0741754,15 9.26479997,15 L3.73520003,15 C2.92582457,15 2.25658249,14.3489843 2.20849051,13.5148694 L1.58403361,2.68419047 L0,2.68419047 L0,2.13155806 C0,1.91355061 0.171185243,1.73682065 0.382352941,1.73682065 L12.6176471,1.73682065 C12.8288148,1.73682065 13,1.91355061 13,2.13155806 L13,2.68419047 L11.4159664,2.68419047 Z M5.50589169,4.73682737 L5.88824463,11.8421007 L4.97058824,11.8421007 L4.58823529,4.73682737 L5.50589169,4.73682737 Z M8.41176471,4.73682737 L8.02941176,11.8421007 L7.11175537,11.8421007 L7.49410831,4.73682737 L8.41176471,4.73682737 Z M8.02941176,0 C8.24057946,0 8.41176471,0.176729958 8.41176471,0.394737409 L8.41176471,0.947367372 L4.58823529,0.947367372 L4.58823529,0.394737409 C4.58823529,0.176729958 4.75942054,0 4.97058824,0 L8.02941176,0 Z" id="Combined-Shape"></path>
        </g>
    </g>
</svg>