<?xml version="1.0" encoding="UTF-8"?>
<svg width="24px" height="24px" viewBox="0 0 24 24" version="1.1" xmlns="http://www.w3.org/2000/svg" xmlns:xlink="http://www.w3.org/1999/xlink">
    <title>0.图标/04.笔记/icons_outlined_note_check</title>
    <g id="0.图标/04.笔记/icons_outlined_note_check" stroke="none" stroke-width="1" fill="none" fill-rule="evenodd" fill-opacity="0.9">
        <g id="check" transform="translate(6.000000, 6.000000)" fill="#000000">
            <path d="M8,0 L8,1 L1,1 L1,11 L11,11 L11,6 L12,6 L12,10.8 C12,11.4627417 11.4627417,12 10.8,12 L1.2,12 C0.5372583,12 -5.84971365e-16,11.4627417 0,10.8 L0,1.2 C-3.03207055e-16,0.5372583 0.5372583,-5.4439014e-16 1.2,0 L8,0 Z" id="Combined-Shape"></path>
            <path d="M12.0532005,0.449974821 L12.7603073,1.1570816 L6.31526468,7.60097482 L6.32479858,7.61062622 L5.6176918,8.317733 L2.78926468,5.48930588 L3.49637146,4.7821991 L5.60826468,6.89397482 L12.0532005,0.449974821 Z" id="形状结合"></path>
        </g>
    </g>
</svg>