<?xml version="1.0" encoding="UTF-8"?>
<svg width="32px" height="32px" viewBox="0 0 32 32" version="1.1" xmlns="http://www.w3.org/2000/svg" xmlns:xlink="http://www.w3.org/1999/xlink">
    <title>icon_视频号</title>
    <g id="icon_视频号" stroke="none" stroke-width="1" fill="none" fill-rule="evenodd">
        <g id="编组">
            <g id="5⃣️备份" transform="translate(4.750000, 4.750000)" fill="#FFFFFF" fill-opacity="0.5">
                <path d="M19.184475,1.44982234 C20.4658148,0.931499562 21.5613089,1.42872576 22.1321931,2.8577963 C23.668466,6.70256827 20.0723764,21.25 17.2510269,21.25 C16.3381799,21.25 15.4233479,20.4904341 14.3575468,19.1251338 C13.8771912,18.5097943 13.3757599,17.7763031 12.8602147,16.9484549 C12.4477937,16.2862007 12.0423975,15.5899052 11.6529389,14.8852293 L11.2503058,14.1434505 L11.2503058,14.1434505 L11.2308893,14.1787104 C10.7270985,15.1219258 10.1896922,16.0654493 9.6397976,16.9484549 C9.12425241,17.7763031 8.62282105,18.5097943 8.14246549,19.1251338 C7.07666442,20.4904341 6.16183238,21.25 5.24898541,21.25 C2.42763592,21.25 -1.16845369,6.70256827 0.367798076,2.85784922 C0.938703357,1.42872576 2.03419747,0.931499562 3.31553732,1.44982234 C4.24455677,1.82562579 5.26986997,2.72419001 6.41564264,4.07025842 C7.09748408,4.87129447 7.81075134,5.81988733 8.54489984,6.88626679 C9.35775842,8.06697572 10.1541267,9.32954932 10.9017588,10.5918367 L11.2504336,11.1858854 L11.5982535,10.5918367 C12.1963592,9.5820068 12.825656,8.57199371 13.4696341,7.6038587 L13.9551124,6.88626679 C14.689261,5.81988733 15.4025282,4.87129447 16.0843696,4.07025842 C17.2301423,2.72419001 18.2554555,1.82562579 19.184475,1.44982234 Z M2.7842065,2.7418149 C2.24311806,2.52293583 1.96432734,2.64947421 1.67575066,3.37185621 C1.17148191,4.6338705 1.38323675,7.81404127 2.1307902,11.3828048 L2.30565966,12.1816383 L2.49772909,12.9895349 C3.44131274,16.8066586 4.79886187,19.8546738 5.24898541,19.8546738 C5.55707148,19.8546738 6.2295763,19.2963071 7.03001726,18.2709354 C7.47664384,17.698803 7.95136018,17.0043904 8.44281131,16.2152317 C8.84172464,15.5746677 9.235453,14.8983512 9.61422956,14.2129666 L10.0721334,13.3667714 L10.0721334,13.3667714 L10.4562855,12.626884 L10.054655,11.9235826 L9.68867728,11.298562 C8.95605911,10.0616239 8.17604091,8.82497191 7.38301473,7.67307032 C6.67393639,6.64310625 5.98831216,5.73127659 5.34060826,4.97034576 C4.3305499,3.78371625 3.44813389,3.01038431 2.7842065,2.7418149 Z M20.8242405,3.37180328 C20.535685,2.64947421 20.2568942,2.52293583 19.7158058,2.7418149 C19.0518784,3.01038431 18.1694624,3.78371625 17.159404,4.97034576 C16.5117001,5.73127659 15.8260759,6.64310625 15.1169976,7.67307032 C14.4825766,8.59459159 13.8564808,9.5703531 13.2563188,10.5571092 L12.623581,11.6173925 L12.0425544,12.626884 L12.2418511,13.0124916 L12.5123518,13.5255475 C13.0026498,14.4435011 13.5253165,15.3611464 14.057201,16.2152317 C14.5486521,17.0043904 15.0233685,17.698803 15.469995,18.2709354 C16.270436,19.2963071 16.9429408,19.8546738 17.2510269,19.8546738 C17.7011504,19.8546738 19.0586995,16.8066586 20.0022832,12.9895349 L20.1943526,12.1816383 C21.0814756,8.29570232 21.3658823,4.72734963 20.8242405,3.37180328 Z" id="形状"></path>
            </g>
            <rect id="矩形" x="0" y="0" width="32" height="32"></rect>
        </g>
    </g>
</svg>