<?xml version="1.0" encoding="UTF-8"?>
<svg width="40px" height="40px" viewBox="0 0 40 40" version="1.1" xmlns="http://www.w3.org/2000/svg" xmlns:xlink="http://www.w3.org/1999/xlink">
    <title>麦克风已开</title>
    <g id="0702-切图" stroke="none" stroke-width="1" fill="none" fill-rule="evenodd">
        <g id="麦克风已开">
            <circle id="椭圆形" fill="#FFFFFF" cx="20" cy="20" r="20"></circle>
            <g id="编组" transform="translate(8.000000, 8.000000)" fill="#000000" fill-opacity="0.9">
                <g id="Group">
                    <path d="M6.5,10 L6.5,12 C6.5,15.0375661 8.96243388,17.5 12,17.5 C15.0375661,17.5 17.5,15.0375661 17.5,12 L17.5,10 L19,10 L19,12 C19,15.6123219 16.2637825,18.5855659 12.7508809,18.9601985 L12.75,22 L11.25,22 L11.2501233,18.9603055 C7.73673901,18.5861325 5,15.6126661 5,12 L5,10 L6.5,10 Z M12,2 C14.209139,2 16,3.790861 16,6 L16,6 L16,12 C16,14.209139 14.209139,16 12,16 C9.790861,16 8,14.209139 8,12 L8,12 L8,6 C8,3.790861 9.790861,2 12,2 Z" id="Combined-Shape"></path>
                </g>
            </g>
        </g>
    </g>
</svg>