<?xml version="1.0" encoding="UTF-8"?>
<svg width="40px" height="40px" viewBox="0 0 40 40" version="1.1" xmlns="http://www.w3.org/2000/svg" xmlns:xlink="http://www.w3.org/1999/xlink">
    <title>摄像头关</title>
    <g id="0702-切图" stroke="none" stroke-width="1" fill="none" fill-rule="evenodd">
        <g id="摄像头关">
            <circle id="椭圆形" fill-opacity="0.3" fill="#000000" cx="20" cy="20" r="20"></circle>
            <g id="0.图标/面型/icons_filled_mike_off" transform="translate(8.000000, 8.000000)">
                <rect id="矩形" fill-opacity="0" fill="#F7F7F7" x="0" y="0" width="24" height="24"></rect>
                <path d="M2.31066017,2.98 L19.2812229,19.9505627 L18.2205627,21.0112229 L1.25,4.04066017 L2.31066017,2.98 Z M1.78912039,6.70140511 L14.1132814,19.025 L2.73528137,19.0259415 C2.18299662,19.0259415 1.73528137,18.5782263 1.73528137,18.0259415 L1.73528137,7.02594155 C1.73528137,6.91234329 1.75422308,6.80316911 1.78912039,6.70140511 Z M22.5161502,7.98187135 C22.6580006,8.15918439 22.7352814,8.3794949 22.7352814,8.60656639 L22.7352814,16.4453167 C22.7352814,16.9976014 22.2875661,17.4453167 21.7352814,17.4453167 C21.5082099,17.4453167 21.2878994,17.3680359 21.1105863,17.2261855 L17.7352814,14.5259415 L17.7352814,10.5259415 L21.1105863,7.82569758 C21.5418483,7.48068804 22.1711406,7.55060941 22.5161502,7.98187135 Z M5.35428137,6.025 L15.7352814,6.02594155 C16.2875661,6.02594155 16.7352814,6.4736568 16.7352814,7.02594155 L16.7352814,17.405 L5.35428137,6.025 Z" id="Icon" fill="#FFFFFF"></path>
            </g>
        </g>
    </g>
</svg>